HIERARCHY
ROOT Root
{
  OFFSET 11.0008 11.8871 -7.89242
  CHANNELS 6 Xposition Yposition Zposition Zrotation Xrotation Yrotation
  JOINT Spine
  {
    OFFSET 5.3114 0 0
    CHANNELS 3 Zrotation Xrotation Yrotation
    JOINT Spine1
    {
      OFFSET 2.79004 0 0
      CHANNELS 3 Zrotation Xrotation Yrotation
      JOINT Neck
      {
        OFFSET 1.43377 0 0
        CHANNELS 3 Zrotation Xrotation Yrotation
        JOINT Head
        {
          OFFSET 1.86043 0 0
          CHANNELS 3 Zrotation Xrotation Yrotation
          End Site
          {
            OFFSET 0 0 0
          }
        }
      }
      JOINT LeftArm
      {
        OFFSET 0.0387506 0 2.55754
        CHANNELS 3 Zrotation Xrotation Yrotation
        JOINT LeftForeArm
        {
          OFFSET 4.24845 0 0
          CHANNELS 3 Zrotation Xrotation Yrotation
          JOINT LeftHand
          {
            OFFSET 4.01008 0 0
            CHANNELS 3 Zrotation Xrotation Yrotation
            End Site
            {
              OFFSET 0 0 0
            }
          }
        }
      }
      JOINT RightArm
      {
        OFFSET 0.0387506 0 -2.55754
        CHANNELS 3 Zrotation Xrotation Yrotation
        JOINT RightForeArm
        {
          OFFSET -4.24845 0 0
          CHANNELS 3 Zrotation Xrotation Yrotation
          JOINT RightHand
          {
            OFFSET -4.01009 0 0
            CHANNELS 3 Zrotation Xrotation Yrotation
            End Site
            {
              OFFSET 0 0 0
            }
          }
        }
      }
    }
  }
  JOINT LeftUpLeg
  {
    OFFSET -1.23318 0 2.05692
    CHANNELS 3 Zrotation Xrotation Yrotation
    JOINT LeftLeg
    {
      OFFSET 5.46397 0 0
      CHANNELS 3 Zrotation Xrotation Yrotation
      JOINT LeftFoot
      {
        OFFSET 4.68898 0 0
        CHANNELS 3 Zrotation Xrotation Yrotation
        End Site
        {
          OFFSET 0 0 0
        }
      }
    }
  }
  JOINT RightUpLeg
  {
    OFFSET -1.24454 0 -2.05007
    CHANNELS 3 Zrotation Xrotation Yrotation
    JOINT RightLeg
    {
      OFFSET -5.46397 0 0
      CHANNELS 3 Zrotation Xrotation Yrotation
      JOINT RightFoot
      {
        OFFSET -4.68901 0 0
        CHANNELS 3 Zrotation Xrotation Yrotation
        End Site
        {
          OFFSET 0 0 0
        }
      }
    }
  }
}
MOTION
Frames:	23
Frame Time:	0.00833333
11.0008 11.8871 -7.89242 -0 90 90 9.69808e-018 1.34041e-020 0.158382 1.41245e-030 7.06225e-031 2.48481e-017 -7.30747e-017 7.61111e-019 -1.19349 3.40995e-017 1.65719e-019 0.556895 -2.12238e-008 -1.53545e-005 -90.1584 -2.50273e-005 -2.47192e-012 6.55612e-006 1.52588e-005 -6.98387e-015 174.455 180 -4.60993e-005 -89.8417 -5.49628e-005 -2.25992e-011 3.612e-005 1.52588e-005 6.98387e-015 174.455 -3.948 -0.248811 -175.995 -8.56345 0.175944 -0.87 4.60944 -0.077536 176.868 177.961 -0.126802 -176.037 -4.4228 0.0845968 -0.87725 2.38092 -0.033632 176.598 
10.9686 11.8902 -8.04743 92.3819 64.4264 -0.859735 -1.54979 0.560145 -0.184188 1.32681 0.162621 0.265522 -4.5861 0.274555 -1.31888 9.10251 0.702986 1.1042 8.01164 -3.47231 -112.571 7.09709 0.317229 4.07802 -0.279589 -3.19168 174.449 -176.554 -0.978469 -112.538 7.70752 0.431188 4.40611 0.534962 6.08584 174.434 -6.0625 -0.353365 -177.13 -14.9299 -0.126067 -0.976112 11.3689 -1.41329 177.566 174.032 -2.77852 -176.362 -11.1317 -0.111574 -0.974366 1.14463 2.55759 176.73 
10.9346 11.8935 -8.21244 93.8825 37.4048 -0.954636 -3.18323 1.15884 -0.546585 2.73082 0.336428 0.546611 -9.42938 0.564301 -1.45129 18.7137 1.44412 1.68073 12.3087 -13.3189 -135.267 14.5502 0.647128 8.38911 -0.577431 -6.57125 174.424 -174.154 -3.81999 -136.46 15.7738 0.876523 9.0594 1.11554 12.5472 174.342 -8.29294 -0.460119 -178.33 -21.6438 -0.444831 -1.08779 18.5331 -2.8223 178.3 169.863 -5.58814 -176.696 -18.2051 -0.318529 -1.07654 -0.162975 5.30364 176.861 
10.9043 11.8965 -8.35744 95.082 13.2843 -1.14394 -4.62928 1.68025 -0.869674 3.9759 0.48782 0.79659 -13.7547 0.823574 -1.56979 27.2672 2.1078 2.20004 9.88495 -24.8658 -155.784 21.157 0.932434 12.2355 -0.845535 -9.57476 174.386 -173.869 -7.1242 -157.809 22.9257 1.26302 13.2211 1.65319 18.2555 174.195 -10.3039 -0.562554 -179.4 -27.6661 -0.730027 -1.18844 24.9856 -4.08773 178.962 166.086 -8.08714 -176.994 -24.5515 -0.50388 -1.16864 -1.36239 7.74198 176.975 
10.8829 11.8985 -8.45239 95.7995 -3.58755 -1.39059 -5.62142 2.00864 -1.09413 4.82694 0.583214 0.968766 -16.7877 1.00673 -1.65341 33.2047 2.57882 2.5752 3.36417 -32.8281 -171.77 25.7422 1.12457 14.9187 -1.03254 -11.6384 174.349 -174.884 -9.32258 -172.767 27.9278 1.53102 16.1514 2.03419 22.0833 174.058 -11.7582 -0.654264 179.855 -31.9573 -0.931348 -1.26145 29.5915 -4.99272 179.445 163.35 -9.80617 -177.213 -29.0792 -0.635249 -1.2355 -2.26813 9.40976 177.062 
10.874 11.899 -8.47699 96.0402 -10.3091 -1.5766 -5.98124 2.06087 -1.17815 5.12184 0.598462 1.03099 -18.0141 1.08373 -1.68879 35.5002 2.78182 2.74974 -0.730269 -35.9637 -178.798 27.5286 1.19726 15.9671 -1.1002 -12.3774 174.335 -175.539 -10.0945 -178.561 29.9709 1.65105 17.3509 2.15745 23.2772 174.007 -12.4359 -0.742478 179.565 -33.835 -1.01542 -1.29611 31.5842 -5.40186 179.679 162.121 -10.4301 -177.319 -31.0231 -0.690208 -1.26624 -2.76204 9.99554 177.114 
10.8741 11.8985 -8.45136 96.0256 -9.78272 -1.65901 -5.89079 1.91617 -1.16191 5.02005 0.556556 1.01473 -17.9502 1.08488 -1.68968 35.1972 2.79352 2.78067 -0.682799 -36.477 -178.172 27.3254 1.18837 15.8479 -1.08125 -12.1708 174.339 -175.431 -10.0724 -177.732 29.9149 1.67156 17.314 2.08646 22.5904 174.035 -12.5574 -0.827706 179.601 -33.988 -1.01574 -1.30333 31.7026 -5.45648 179.734 161.975 -10.2717 -177.343 -31.1229 -0.690631 -1.27123 -2.95865 9.80848 177.143 
10.8778 11.8978 -8.40607 95.9284 -6.36757 -1.69502 -5.62514 1.70243 -1.10894 4.76898 0.494628 0.968688 -17.3678 1.05512 -1.67574 33.8419 2.727 2.75109 1.19399 -35.9448 -174.375 26.3417 1.14954 15.2703 -1.02908 -11.6004 174.35 -175.013 -9.73346 -174.257 29.0341 1.65573 16.79 1.94035 21.1557 174.091 -12.4454 -0.893542 179.768 -33.4331 -0.982319 -1.29899 31.0666 -5.35513 179.711 162.226 -9.80327 -177.343 -30.5444 -0.6706 -1.26712 -3.02081 9.31649 177.161 
10.8801 11.8974 -8.37172 95.8884 -4.42193 -1.75086 -5.45992 1.54754 -1.08275 4.61617 0.449816 0.941551 -17.0387 1.03935 -1.66667 32.9801 2.69526 2.74418 2.16532 -35.8818 -172.128 25.786 1.13228 14.9434 -0.996975 -11.2481 174.356 -174.766 -9.55073 -172.122 28.6001 1.66578 16.5284 1.83531 20.1059 174.129 -12.4237 -0.923566 179.873 -33.1868 -0.965149 -1.29898 30.7981 -5.29627 179.711 162.188 -9.49735 -177.376 -30.4534 -0.664192 -1.27058 -3.1125 8.98757 177.177 
10.8802 11.8977 -8.35351 95.9309 -4.67667 -1.8341 -5.45016 1.47686 -1.09153 4.60869 0.429552 0.942863 -17.0863 1.04317 -1.667 32.8581 2.71252 2.77266 1.87206 -36.6764 -172.151 25.8587 1.14501 14.9846 -0.993706 -11.2121 174.357 -174.728 -9.63372 -171.982 28.8312 1.71341 16.6576 1.78776 19.6254 174.145 -12.5518 -0.910254 179.889 -33.4175 -0.972268 -1.30586 31.0844 -5.29889 179.745 161.733 -9.43473 -177.454 -31.0678 -0.677462 -1.28465 -3.27633 8.8971 177.197 
10.8808 11.8983 -8.33612 95.983 -4.9511 -1.91526 -5.45499 1.42509 -1.10433 4.62082 0.414855 0.947801 -17.1265 1.04474 -1.66646 32.7068 2.7238 2.79535 1.58282 -37.4883 -172.146 25.9555 1.16193 15.0395 -0.992714 -11.2012 174.357 -174.686 -9.72672 -171.851 29.089 1.76688 16.8017 1.7409 19.1492 174.161 -12.6659 -0.863407 179.911 -33.6172 -0.978774 -1.31172 31.3646 -5.26843 179.763 161.209 -9.37847 -177.55 -31.7968 -0.693245 -1.3009 -3.42533 8.81198 177.213 
10.8812 11.8988 -8.31931 96.0332 -5.23594 -1.98976 -5.45703 1.38418 -1.12587 4.64114 0.403238 0.953519 -17.1696 1.04786 -1.66256 32.5489 2.73838 2.81446 1.30783 -38.2809 -172.114 26.0804 1.18403 15.1102 -0.993763 -11.2127 174.357 -174.644 -9.83251 -171.729 29.3612 1.82393 16.9538 1.69565 18.6865 174.176 -12.7561 -0.792617 179.931 -33.7884 -0.985266 -1.3167 31.6376 -5.23314 179.78 160.643 -9.32436 -177.653 -32.5932 -0.710793 -1.31883 -3.52932 8.73741 177.223 
10.8809 11.8988 -8.30286 96.07 -5.5219 -2.05302 -5.4389 1.34606 -1.16088 4.65821 0.392212 0.957173 -17.2256 1.05631 -1.6528 32.4073 2.76553 2.83222 1.05712 -39.0176 -172.057 26.2371 1.21232 15.1987 -0.996618 -11.2439 174.356 -174.603 -9.95387 -171.619 29.6356 1.88234 17.1068 1.65288 18.2468 174.189 -12.8125 -0.707473 179.938 -33.9336 -0.992342 -1.32095 31.9027 -5.22125 179.809 160.065 -9.2682 -177.756 -33.4099 -0.729356 -1.33796 -3.5581 8.6786 177.226 
10.8798 11.8981 -8.28678 96.0917 -5.81372 -2.09723 -5.39769 1.31504 -1.21961 4.6738 0.382977 0.960933 -17.3071 1.07124 -1.63571 32.2916 2.80933 2.85198 0.8308 -39.6951 -171.972 26.4328 1.24795 15.3092 -1.00128 -11.2948 174.355 -174.566 -10.1008 -171.52 29.9164 1.94312 17.2631 1.612 17.8245 174.202 -12.8279 -0.591362 179.929 -34.0477 -1.00023 -1.32434 32.1523 -5.2411 179.854 159.467 -9.20772 -177.853 -34.2685 -0.749365 -1.35899 -3.48887 8.65294 177.218 
10.8782 11.8969 -8.27115 96.1043 -6.11397 -2.12701 -5.34211 1.29325 -1.29654 4.69239 0.376239 0.96534 -17.4053 1.09059 -1.61289 32.1884 2.86431 2.87164 0.62633 -40.3305 -171.86 26.6633 1.29006 15.4393 -1.00785 -11.3665 174.354 -174.53 -10.2687 -171.431 30.2076 2.00691 17.425 1.57277 17.4172 174.214 -12.809 -0.445559 179.909 -34.1313 -1.00859 -1.32685 32.3892 -5.27735 179.908 158.838 -9.14554 -177.948 -35.1829 -0.771007 -1.38191 -3.34266 8.65231 177.203 
10.8761 11.8957 -8.25592 96.1079 -6.41009 -2.15643 -5.27226 1.26942 -1.37274 4.70665 0.368771 0.965105 -17.4989 1.1133 -1.58646 32.0861 2.92536 2.88525 0.449072 -40.9179 -171.723 26.9154 1.33664 15.5816 -1.01626 -11.4583 174.352 -174.493 -10.4385 -171.355 30.4966 2.0709 17.5856 1.53652 17.0394 174.224 -12.7668 -0.306491 179.885 -34.1954 -1.01716 -1.32877 32.6287 -5.32276 179.968 158.205 -9.08477 -178.053 -36.0938 -0.793177 -1.40511 -3.15511 8.64368 177.182 
10.8735 11.8951 -8.24103 96.1024 -6.68951 -2.19959 -5.18827 1.23226 -1.4293 4.70923 0.357348 0.954939 -17.5662 1.13833 -1.55853 31.9729 2.98737 2.88688 0.303905 -41.4516 -171.566 27.1761 1.3857 15.7285 -1.02645 -11.5695 174.35 -174.453 -10.5915 -171.295 30.7711 2.1323 17.7379 1.50456 16.7052 174.234 -12.7128 -0.210586 179.864 -34.2512 -1.0257 -1.33042 32.8859 -5.37007 -179.968 157.592 -9.02845 -178.175 -36.9421 -0.814769 -1.42699 -2.96189 8.594 177.159 
10.8707 11.8952 -8.22648 96.0848 -6.9513 -2.26171 -5.08266 1.17925 -1.45965 4.69205 0.341061 0.928374 -17.5935 1.16674 -1.52877 31.8301 3.05313 2.87984 0.203389 -41.9296 -171.38 27.4467 1.4375 15.8808 -1.03825 -11.6982 174.347 -174.411 -10.7256 -171.257 31.0286 2.19071 17.8806 1.47761 16.4228 174.242 -12.6507 -0.153513 179.854 -34.3067 -1.03408 -1.33197 33.1606 -5.41363 -179.902 157.004 -8.98103 -178.323 -37.7302 -0.836235 -1.44761 -2.7511 8.50288 177.13 
10.8677 11.8959 -8.21229 96.0558 -7.20134 -2.33479 -4.95786 1.11626 -1.47439 4.66105 0.321647 0.889917 -17.5949 1.19865 -1.49633 31.6691 3.12397 2.86568 0.141759 -42.3548 -171.165 27.7325 1.49282 16.0415 -1.05177 -11.8455 174.344 -174.368 -10.85 -171.237 31.2755 2.24751 18.0172 1.45476 16.1831 174.248 -12.5743 -0.120527 179.849 -34.3545 -1.04245 -1.33323 33.4461 -5.45854 -179.834 156.429 -8.93962 -178.49 -38.4836 -0.857915 -1.46765 -2.51095 8.38514 177.094 
10.8638 11.8968 -8.19846 96.0213 -7.43728 -2.41315 -4.82881 1.04455 -1.48035 4.62992 0.299844 0.850742 -17.591 1.23157 -1.46263 31.5237 3.19265 2.83574 0.0952409 -42.7291 -170.945 28.0263 1.55044 16.2066 -1.06729 -12.0144 174.34 -174.32 -10.9622 -171.226 31.5127 2.30265 18.1482 1.43495 15.9748 174.254 -12.4798 -0.132429 179.838 -34.3817 -1.05098 -1.33392 33.7481 -5.51371 -179.755 155.867 -8.89636 -178.664 -39.1777 -0.878538 -1.48648 -2.27734 8.23055 177.06 
10.8583 11.8975 -8.18497 95.9873 -7.65677 -2.49106 -4.71048 0.965407 -1.48435 4.61238 0.276394 0.822022 -17.6021 1.26301 -1.42907 31.4277 3.25193 2.78137 0.0392422 -43.0545 -170.743 28.3208 1.60916 16.3718 -1.08512 -12.2081 174.336 -174.264 -11.0594 -171.212 31.7407 2.35609 18.2741 1.41711 15.7869 174.259 -12.3637 -0.210021 179.807 -34.3755 -1.05983 -1.33376 34.0725 -5.58802 -179.661 155.32 -8.84342 -178.833 -39.7875 -0.896833 -1.50343 -2.08612 8.02886 177.032 
10.8509 11.898 -8.17181 95.951 -7.86433 -2.56982 -4.60678 0.879605 -1.48341 4.61746 0.251737 0.807698 -17.6346 1.29218 -1.39482 31.3955 3.29693 2.6892 -0.0305833 -43.3319 -170.568 28.6289 1.67189 16.5443 -1.10708 -12.4462 174.331 -174.198 -11.1442 -171.189 31.9613 2.40826 18.3957 1.40157 15.6228 174.263 -12.2119 -0.382757 179.75 -34.3205 -1.06943 -1.33238 34.4384 -5.68974 -179.542 154.788 -8.7849 -178.997 -40.319 -0.912373 -1.51884 -1.95429 7.75636 177.014 
10.8421 11.8985 -8.159 95.9109 -8.0595 -2.65154 -4.50971 0.786313 -1.47549 4.63607 0.225399 0.801492 -17.6774 1.32044 -1.35952 31.4074 3.3325 2.56753 -0.103512 -43.5602 -170.407 28.9495 1.73816 16.7235 -1.13246 -12.7207 174.325 -174.125 -11.2169 -171.165 32.1734 2.45905 18.5125 1.38866 15.4863 174.267 -12.0312 -0.631572 179.675 -34.2276 -1.07956 -1.33003 34.8371 -5.81214 -179.405 154.271 -8.7229 -179.162 -40.7812 -0.925866 -1.53289 -1.86023 7.42549 177.002 
